<svg width="23" height="19" viewBox="0 0 23 19" fill="none" xmlns="http://www.w3.org/2000/svg">
<path d="M4.21838 18.093H18.0941C19.014 18.093 19.8962 17.7276 20.5466 17.0771C21.1971 16.4267 21.5625 15.5445 21.5625 14.6246V6.53138C21.5626 6.07581 21.473 5.62467 21.2988 5.20374C21.1246 4.78281 20.8691 4.40032 20.547 4.07814C20.225 3.75595 19.8426 3.50037 19.4217 3.326C19.0008 3.15163 18.5497 3.06188 18.0941 3.06188H16.4978C16.0388 3.06188 15.5978 2.8785 15.2715 2.55338L13.9778 1.2585C13.8168 1.09729 13.6257 0.969397 13.4153 0.882142C13.2048 0.794888 12.9793 0.749983 12.7515 0.75H9.561C9.09975 0.75 8.661 0.933375 8.33475 1.2585L7.041 2.55338C6.71475 2.87963 6.27375 3.06188 5.81475 3.06188H4.21838C3.76281 3.06188 3.3117 3.15163 2.89083 3.326C2.46995 3.50037 2.08755 3.75595 1.76547 4.07814C1.44338 4.40032 1.18793 4.78281 1.01369 5.20374C0.839456 5.62467 0.749852 6.07581 0.75 6.53138V14.6246C0.75 15.5445 1.11542 16.4267 1.76586 17.0771C2.41631 17.7276 3.29851 18.093 4.21838 18.093Z" stroke="#A450FF" stroke-width="1.5" stroke-linecap="round" stroke-linejoin="round"/>
<path d="M11.1562 14.6248C12.3828 14.6248 13.5592 14.1375 14.4265 13.2702C15.2939 12.4028 15.7811 11.2265 15.7811 9.99988C15.7811 8.77328 15.2939 7.59693 14.4265 6.7296C13.5592 5.86226 12.3828 5.375 11.1562 5.375C9.92965 5.375 8.7533 5.86226 7.88597 6.7296C7.01863 7.59693 6.53137 8.77328 6.53137 9.99988C6.53137 11.2265 7.01863 12.4028 7.88597 13.2702C8.7533 14.1375 9.92965 14.6248 11.1562 14.6248Z" stroke="#A450FF" stroke-width="1.5" stroke-linecap="round" stroke-linejoin="round"/>
</svg>
